# xmcd CD database file
# Copyright (C) 1997 Ti Kan
# 
# Track frame offsets:
#     182
#     11357
#     22030
#     32247
#     42905
#     53287
#     65092
#     76137
#     85255
#     93920
#     103112
#     112560
#     121790
#     130840
#     143185
#     152450
#     159932
# 
# Disc length: 2254 seconds
# 
# Revision: 1
# Processed by: cddbd v1.4b41PL1 Copyright (c) Steve Scherf et al.
# Submitted via: DiscPlay 4.0.4
# 
DISCID=c008cc11
DTITLE=Fats Domino - 16 Greatest hits
DYEAR=1900
DGENRE=
TTITLE0=Blueberry Hill
TTITLE1=I Want To Walk You Home
TTITLE2=Blue Monday
TTITLE3=Jambalaya
TTITLE4=The Fat Man
TTITLE5=Red Sails In The Sunset
TTITLE6=Ain't That A Shame
TTITLE7=Let The Four Winds Blow
TTITLE8=Walking To New Orleans
TTITLE9=I'm Ready
TTITLE10=My Blue Heaven
TTITLE11=I'm Gonna Be A Wheel Someday
TTITLE12=Be My Guest
TTITLE13=Going Home
TTITLE14=I'm Walking
TTITLE15=Whole Lotta Loving
TTITLE16=I'm In Love Again
EXTD=
EXTT0=
EXTT1=
EXTT2=
EXTT3=
EXTT4=
EXTT5=
EXTT6=
EXTT7=
EXTT8=
EXTT9=
EXTT10=
EXTT11=
EXTT12=
EXTT13=
EXTT14=
EXTT15=
EXTT16=
PLAYORDER=
